<?xml version="1.0" encoding="UTF-8"?>
<svg xmlns="http://www.w3.org/2000/svg" xmlns:xlink="http://www.w3.org/1999/xlink" width="20px" height="20px" viewBox="0 0 365 302.39" version="1.1">
<g id="surface1">
<path style=" stroke:none;fill-rule:nonzero;fill:rgb(71.798706%,12.5%,14.498901%);fill-opacity:1;" d="M 238.007813 14.449219 L 238.007813 0 L 271.933594 0 L 271.933594 28.898438 L 238.007813 28.898438 Z M 91.832031 14.449219 L 91.832031 0 L 125.757813 0 L 125.757813 28.898438 L 91.832031 28.898438 Z M 206.59375 54.660156 L 206.59375 37.695313 L 331.828125 37.695313 L 331.828125 71.621094 L 206.59375 71.621094 Z M 165.546875 49.632813 L 165.546875 0 L 199.472656 0 L 199.472656 99.265625 L 165.546875 99.265625 Z M 49.105469 137.683594 C 47.144531 135.789063 41.773438 130.667969 37.167969 126.300781 C 28.792969 118.363281 14.9375 105.144531 5.183594 95.785156 L 0 90.816406 L 2.042969 88.652344 C 3.164063 87.464844 7.925781 82.597656 12.621094 77.839844 C 17.316406 73.082031 21.289063 68.976563 21.449219 68.714844 C 21.71875 68.277344 25.671875 64.226563 44.671875 44.921875 L 51.78125 37.695313 L 158.425781 37.695313 L 158.425781 71.621094 L 65.183594 71.621094 L 57.25 80.449219 C 52.886719 85.304688 49.273438 89.40625 49.21875 89.558594 C 49.117188 89.832031 56.683594 98.371094 62.550781 104.605469 L 65.40625 107.640625 L 83.871094 107.640625 L 83.871094 141.148438 L 68.273438 141.136719 L 52.667969 141.125 Z M 132.460938 124.605469 L 132.460938 107.640625 L 232.144531 107.640625 L 232.144531 141.566406 L 132.460938 141.566406 Z M 240.101563 124.816406 L 240.101563 79.160156 L 274.027344 79.160156 L 274.027344 170.46875 L 240.101563 170.46875 Z M 91.832031 124.816406 L 91.832031 79.160156 L 125.757813 79.160156 L 125.757813 170.46875 L 91.832031 170.46875 Z M 206.59375 194.550781 L 206.59375 177.589844 L 299.886719 177.589844 L 307.792969 168.75 C 312.144531 163.886719 315.703125 159.753906 315.703125 159.5625 C 315.703125 159.371094 312.664063 155.855469 308.949219 151.753906 C 305.238281 147.648438 301.6875 143.679688 301.0625 142.929688 L 299.921875 141.566406 L 281.148438 141.566406 L 281.148438 108.0625 L 312.351563 108.085938 L 315.492188 111.054688 C 317.21875 112.6875 322.78125 117.996094 327.847656 122.855469 C 332.914063 127.710938 338.949219 133.484375 341.257813 135.683594 C 343.566406 137.882813 347.8125 141.945313 350.691406 144.710938 C 353.570313 147.472656 357.96875 151.6875 360.464844 154.074219 L 365 158.414063 L 363.179688 160.347656 C 362.175781 161.410156 358.210938 165.488281 354.363281 169.410156 C 350.519531 173.332031 346.1875 177.796875 344.730469 179.328125 C 341.210938 183.042969 315.566406 209.285156 314.238281 210.535156 L 313.199219 211.515625 L 206.59375 211.515625 Z M 30.679688 194.550781 L 30.679688 177.589844 L 158.425781 177.589844 L 158.425781 211.515625 L 30.679688 211.515625 Z M 142.300781 298.757813 C 133.867188 290.636719 110.335938 267.714844 101.992188 259.496094 L 93.089844 250.726563 L 93.089844 217.796875 L 127.015625 217.796875 L 127.015625 237.410156 L 128.375 238.539063 C 129.125 239.160156 130.867188 240.730469 132.25 242.03125 C 133.632813 243.332031 136.460938 245.890625 138.53125 247.71875 C 140.605469 249.546875 142.878906 251.574219 143.582031 252.226563 L 144.863281 253.410156 L 150.488281 248.0625 C 153.582031 245.125 158.222656 240.738281 160.800781 238.320313 L 165.484375 233.921875 L 165.546875 148.289063 L 182.511719 148.175781 L 199.472656 148.058594 L 199.472656 233.933594 L 205.023438 239.375 C 208.074219 242.367188 212.550781 246.742188 214.972656 249.09375 L 219.367188 253.371094 L 220.835938 252.089844 C 221.640625 251.386719 224.089844 249.160156 226.277344 247.144531 C 228.46875 245.128906 231.8125 242.101563 233.714844 240.421875 L 237.167969 237.367188 L 237.167969 218.425781 L 254.132813 218.539063 L 271.09375 218.652344 L 271.09375 249.421875 L 264.328125 256.539063 C 260.605469 260.457031 255.566406 265.734375 253.132813 268.269531 C 250.699219 270.800781 246.625 275.042969 244.082031 277.691406 C 241.535156 280.339844 236.152344 285.996094 232.117188 290.257813 C 228.082031 294.519531 223.84375 298.992188 222.703125 300.195313 L 220.625 302.382813 L 215.316406 297.261719 C 212.398438 294.445313 204.386719 286.660156 197.515625 279.960938 C 190.644531 273.261719 184.296875 267.144531 183.410156 266.371094 L 181.796875 264.964844 L 178.171875 268.710938 C 174.679688 272.316406 151.773438 296.332031 147.9375 300.40625 L 146.070313 302.390625 L 142.300781 298.757813 "/>
</g>
</svg>
